<svg xmlns="http://www.w3.org/2000/svg" width="37" height="64" viewBox="0 0 37 64">
  <metadata><?xpacket begin="﻿" id="W5M0MpCehiHzreSzNTczkc9d"?>
<x:xmpmeta xmlns:x="adobe:ns:meta/" x:xmptk="Adobe XMP Core 5.6-c142 79.160924, 2017/07/13-01:06:39        ">
   <rdf:RDF xmlns:rdf="http://www.w3.org/1999/02/22-rdf-syntax-ns#">
      <rdf:Description rdf:about=""/>
   </rdf:RDF>
</x:xmpmeta>
                                                                                                    
                                                                                                    
                                                                                                    
                                                                                                    
                                                                                                    
                                                                                                    
                                                                                                    
                                                                                                    
                                                                                                    
                                                                                                    
                                                                                                    
                                                                                                    
                                                                                                    
                                                                                                    
                                                                                                    
                                                                                                    
                                                                                                    
                                                                                                    
                                                                                                    
                                                                                                    
                           
<?xpacket end="w"?></metadata>
<defs>
    <style>
      .cls-1 {
        fill: #fff;
        fill-rule: evenodd;
      }
    </style>
  </defs>
  <path id="cv-ico" class="cls-1" d="M1160.21,435l-2-2H1170V387h-33v46h12.51l-1.99,2H1135V385.005h37v50h-11.79Zm7.79-4.009h-13v-2.024h13v2.024Zm0-3h-13v-2.024h13v2.024ZM1167.01,423h-4v-2.024h4V423Zm-6.02.984h-4.01v-3.978h4.01v3.978Zm-4.54-20.8L1160,414.12h0.04l3.63-10.934h2.52L1161.35,417h-2.76l-4.72-13.817h2.58Zm11.55-5.172h-17.01v-2.007H1168v2.007Zm0-3h-17.01v-2.007H1168v2.007Zm0-3h-17.01v-2.008H1168v2.008Zm-14.87,15.669h-2.25a3.092,3.092,0,0,0-3.2-2.624c-2.76,0-3.91,2.494-3.91,5.025s1.15,5.025,3.91,5.025c1.99,0,3.09-1.533,3.27-3.455h2.2a5.329,5.329,0,0,1-5.47,5.339c-3.86,0-6.16-3.14-6.16-6.909s2.3-6.909,6.16-6.909C1150.57,403.193,1152.86,404.837,1153.13,407.683Zm-14.13-18.7h10V399h-10V388.985Zm5,2.022a1.5,1.5,0,1,0,1.51,1.5A1.5,1.5,0,0,0,1144,391.007Zm-3.01,5.98h6.02v-0.748c0-1.009-1.99-1.494-3.01-1.494s-3.01.485-3.01,1.494v0.748Zm3,23.019v3.978h-4.01v-3.978h4.01Zm6.02,0.97V423h-4v-2.024h4Zm1.99,10.015h-13v-2.024h13v2.024Zm-13-5.024h13v2.024h-13v-2.024ZM1161,439h-5v6h-5v-6h-5l7.5-6.992Zm-1,10h-13v-2h13v2Z" transform="translate(-1135 -385)"/>
</svg>
